<?xml version="1.0" encoding="UTF-8"?>
<svg id="Camada_2" data-name="Camada 2" xmlns="http://www.w3.org/2000/svg" viewBox="0 0 112.03 99.06">
  <defs>
    <style>
      .cls-1 {
        fill: #fafafa;
      }
    </style>
  </defs>
  <g id="prancheta2">
    <g id="simbolo">
      <path class="cls-1" d="M100.86,47.59h0c.03.64.04,1.29.04,1.93,0,1.54-.08,3.07-.23,4.58l-44.66,23.98L11.35,54.11c-.15-1.51-.23-3.04-.23-4.58,0-.65.01-1.29.04-1.93l-4.49-2.42c-.13,1.43-.19,2.89-.19,4.35,0,.66.01,1.33.04,1.98.07,1.88.25,3.73.53,5.55.49,3.21,1.29,6.32,2.36,9.29.87,2.41,1.92,4.73,3.14,6.95,8.41,15.35,24.72,25.75,43.46,25.75s35.04-10.4,43.46-25.75c1.22-2.22,2.27-4.54,3.14-6.95,1.08-2.97,1.88-6.08,2.36-9.29h0c.28-1.82.46-3.67.53-5.55.03-.66.04-1.32.04-1.98,0-1.47-.06-2.92-.19-4.35l-4.49,2.42ZM38.54,90.89c-5.35-2.26-10.15-5.5-14.27-9.62-1.04-1.04-2.03-2.13-2.96-3.26l30.13,16.18c-4.45-.45-8.77-1.55-12.9-3.3ZM87.75,81.27c-4.12,4.12-8.92,7.36-14.27,9.62-4.13,1.75-8.45,2.85-12.9,3.3l30.13-16.18c-.93,1.13-1.92,2.21-2.96,3.26ZM97.38,67c-.41.98-.86,1.94-1.34,2.89h0s-40.02,21.49-40.02,21.49l-40.02-21.49h0c-.48-.95-.93-1.91-1.34-2.89-.98-2.31-1.75-4.68-2.33-7.1l43.4,23.3.29.16.29-.16h0s43.4-23.3,43.4-23.3c-.57,2.42-1.35,4.79-2.33,7.1Z"/>
      <path class="cls-1" d="M14.65,32.06c2.26-5.35,5.5-10.15,9.62-14.27,4.12-4.12,8.92-7.36,14.27-9.62,5.53-2.34,11.41-3.53,17.47-3.53s11.94,1.19,17.47,3.53c5.35,2.26,10.15,5.5,14.27,9.62,4.12,4.12,7.36,8.92,9.62,14.27.71,1.69,1.32,3.41,1.82,5.16l4.17-2.24C97.15,14.72,78.3,0,56.01,0S14.88,14.72,8.66,34.97l4.17,2.24c.5-1.75,1.11-3.47,1.82-5.16Z"/>
      <path class="cls-1" d="M112.02,38.59l-2.19-4.08-.11.06-5.63,3.02h0s-4.23,2.27-4.23,2.27l-.34.18h-.02s-.15.09-.15.09l-11.46,6.16-29.55,15.86V29.9h13.14v-4.64h-13.14v-13.38h-4.64v13.38h-13.13v4.64h13.13v32.27l-29.54-15.86-9.85-5.29-2.13-1.15h0s-4.23-2.28-4.23-2.28c0,0,0,0,0,0l-5.63-3.02-.11-.06L0,38.58h0s.11.07.11.07h0s15.06,8.09,15.06,8.09l6.78,3.64h0l33.77,18.13.29.16.29-.16,33.77-18.14,9.21-4.95.38-.2,12.25-6.59h0s.1-.04.1-.04h0ZM53.69,64.74l-.04-.07.04-.02v.09ZM58.33,64.75v-.09l.04.02-.04.07Z"/>
    </g>
  </g>
</svg>