<svg xmlns="http://www.w3.org/2000/svg" viewBox="0 0 137.61 137.61"><defs><style>.cls-1{fill:#fff;}.cls-2{fill:#010101;}</style></defs><g id="Camada_2" data-name="Camada 2"><g id="variações"><rect class="cls-1" width="137.61" height="137.61"/><g id="simbolo"><path class="cls-2" d="M114,66.85h0c0,.65,0,1.3,0,2a44.39,44.39,0,0,1-.23,4.62l-45,24.17-45-24.17c-.15-1.53-.23-3.07-.23-4.62,0-.65,0-1.3,0-2l-4.52-2.44c-.13,1.45-.2,2.91-.2,4.39,0,.67,0,1.34,0,2a51.54,51.54,0,0,0,.54,5.6,49.94,49.94,0,0,0,93.16,16.38,48.59,48.59,0,0,0,3.16-7,49.51,49.51,0,0,0,2.39-9.37h0a49.16,49.16,0,0,0,.53-5.6c0-.66,0-1.33,0-2,0-1.48-.06-2.94-.19-4.38ZM51.19,110.5a45,45,0,0,1-14.38-9.7c-1.06-1-2.05-2.15-3-3.28l30.37,16.3A44.75,44.75,0,0,1,51.19,110.5Zm49.61-9.7a45,45,0,0,1-27.39,13l30.37-16.3C102.85,98.65,101.85,99.75,100.8,100.8Zm9.7-14.38c-.42,1-.87,2-1.36,2.91h0L68.8,111,28.46,89.33h0c-.48-1-.93-1.93-1.35-2.91a45.18,45.18,0,0,1-2.35-7.17l43.75,23.5.29.15.3-.15h0l43.74-23.49A44.15,44.15,0,0,1,110.5,86.42Z"/><path class="cls-2" d="M27.11,51.19a45.28,45.28,0,0,1,83.39,0,44.58,44.58,0,0,1,1.83,5.2l4.21-2.26a49.94,49.94,0,0,0-95.47,0l4.2,2.26A46.57,46.57,0,0,1,27.11,51.19Z"/><path class="cls-2" d="M125.26,57.77l-2.21-4.11-.1.06-5.68,3.05h0L113,59.06l-.34.18,0,0-.16.08-11.55,6.2-29.79,16V49H84.38V44.33H71.14V30.85H66.46V44.33H53.22V49H66.46V81.54l-29.78-16-9.93-5.34L24.6,59.06h0l-4.26-2.3h0l-5.68-3.05-.11-.06-2.2,4.11h0l.11.06h0L27.63,66l6.84,3.67h0L68.51,88l.29.16.3-.16,34-18.28,9.29-5,.38-.21,12.35-6.64h0l.11-.06ZM66.46,84.14l0-.07,0,0Zm4.68,0v-.09l0,0Z"/></g></g></g></svg>